<?xml version="1.0" encoding="UTF-8"?>
<svg width="20px" height="16px" viewBox="0 0 20 16" version="1.1" xmlns="http://www.w3.org/2000/svg" xmlns:xlink="http://www.w3.org/1999/xlink">
    <!-- Generator: Sketch 57.1 (83088) - https://sketch.com -->
    <title>Group 12</title>
    <desc>Created with Sketch.</desc>
    <g id="Page-1" stroke="none" stroke-width="1" fill="none" fill-rule="evenodd">
        <g id="Group-12" fill="#000000">
            <path d="M8.44280988,0.41220071 L8.56770868,0.376517996 C9.42733516,0.130928711 10.3401763,0.143336861 11.1928099,0.41220071 C11.9507576,0.651206947 12.4309955,1.39615479 12.3357702,2.18516738 L12.0911522,4.21200965 C12.0134152,4.85611888 11.7068084,5.45084746 11.227221,5.88778649 C10.7404865,6.33123709 10.3813311,6.89689627 10.1870455,7.5260322 L10.1832316,7.53838232 C10.1339536,7.69795465 9.96464689,7.78736581 9.80507456,7.73808775 C9.7079119,7.70808262 9.63233646,7.63125073 9.60393734,7.53360658 C9.42020275,6.90187557 9.05496521,6.33802317 8.55357218,5.91205662 L8.5250045,5.88778649 C8.0102229,5.45044548 7.66708479,4.84482447 7.55651881,4.17845939 L7.245617,2.30469939 C7.10567241,1.46127369 7.62074368,0.647059284 8.44280988,0.41220071 Z" id="Rectangle"></path>
            <path d="M1.06987556,4.47424661 L0.848925854,4.6689117 C0.309283277,5.14435733 0.000351451313,5.82904542 0.000964669377,6.5482549 C0.0015262452,7.20689605 0.465115278,7.77435495 1.1104097,7.90627765 L4.47767167,8.59467394 C5.23106159,8.74869547 6.01047923,8.71882236 6.74986975,8.50758632 C7.49382343,8.29504664 8.27051677,8.2211126 9.04120944,8.28947193 L9.2849049,8.31108736 C9.41512445,8.32263765 9.5300516,8.22643721 9.54160189,8.09621766 C9.55013207,8.00004721 9.49939975,7.90833396 9.41339917,7.86445437 L9.21022666,7.76079081 C8.63211024,7.46582175 8.14480907,7.01959295 7.80020744,6.46961562 C7.45780801,5.92315295 6.95248191,5.4979812 6.35551436,5.25407839 L3.45970993,4.07094065 C2.65115284,3.74058878 1.72524107,3.89684469 1.06987556,4.47424661 Z" id="Rectangle"></path>
            <path d="M18.9301244,4.31295523 L19.1337963,4.49904387 C19.6855875,5.00319845 19.9996498,5.71635303 19.9990353,6.46377864 C19.9984728,7.14794392 19.5195604,7.7385387 18.8502712,7.88043455 L15.5238515,8.58566805 C14.7702721,8.74543426 13.9887257,8.71450194 13.2501302,8.49567789 C12.5066375,8.27540291 11.7279978,8.19873066 10.9558206,8.26975837 L10.724166,8.29106682 C10.5888936,8.30350968 10.4691467,8.20393664 10.4567038,8.06866422 C10.4476098,7.9697987 10.4988453,7.87515959 10.5866008,7.82872624 L10.7731445,7.73002196 C11.3620867,7.41839995 11.8552238,6.95251932 12.1997926,6.3822268 C12.5420976,5.81568104 13.0545055,5.37164535 13.6639814,5.11340927 L16.5258879,3.90081423 C17.3389517,3.55631759 18.278219,3.71732944 18.9301244,4.31295523 Z" id="Rectangle"></path>
            <path d="M4.27376777,15.02106 L3.96035962,14.9181515 C3.21915017,14.6747732 2.58317968,14.185753 2.15757711,13.5319282 C1.79003234,12.9672937 1.93300958,12.2132841 2.48174291,11.8223967 L4.67856888,10.2574986 C5.29073447,9.82142546 6.00926206,9.55868643 6.75832956,9.49700682 C7.51363453,9.43481361 8.24880151,9.2218032 8.92035915,8.87057119 L9.06781889,8.79344812 C9.19381122,8.72755276 9.34936693,8.77627096 9.4152623,8.90226329 C9.45975234,8.98732851 9.45321847,9.09008151 9.39831207,9.16882631 L9.32821887,9.26935144 C8.98344225,9.76381764 8.81107686,10.3580542 8.83774967,10.9602638 C8.86414989,11.5563189 8.66025674,12.1396896 8.26830762,12.5895279 L6.74091799,14.3425067 C6.12967811,15.0440241 5.15778399,15.3113293 4.27376777,15.02106 Z" id="Rectangle"></path>
            <path d="M15.7262322,15.02106 L16.0396404,14.9181515 C16.7808498,14.6747732 17.4168203,14.185753 17.8424229,13.5319282 C18.2099677,12.9672937 18.0669904,12.2132841 17.5182571,11.8223967 L15.3214311,10.2574986 C14.7092655,9.82142546 13.9907379,9.55868643 13.2416704,9.49700682 C12.4863655,9.43481361 11.7511985,9.2218032 11.0796409,8.87057119 L10.9321811,8.79344812 C10.8061888,8.72755276 10.6506331,8.77627096 10.5847377,8.90226329 C10.5402477,8.98732851 10.5467815,9.09008151 10.6016879,9.16882631 L10.6717811,9.26935144 C11.0165578,9.76381764 11.1889231,10.3580542 11.1622503,10.9602638 C11.1358501,11.5563189 11.3397433,12.1396896 11.7316924,12.5895279 L13.259082,14.3425067 C13.8703219,15.0440241 14.842216,15.3113293 15.7262322,15.02106 Z" id="Rectangle"></path>
        </g>
    </g>
</svg>